<svg width="1280" height="720" viewBox="0 0 1280 720" fill="none" xmlns="http://www.w3.org/2000/svg">
  <rect width="1280" height="720" rx="40" fill="#020617"/>
  <g opacity="0.9">
    <circle cx="354" cy="182" r="260" fill="#2563EB" fill-opacity="0.38"/>
    <circle cx="920" cy="506" r="280" fill="#4F46E5" fill-opacity="0.32"/>
    <circle cx="690" cy="330" r="360" fill="#38BDF8" fill-opacity="0.12"/>
  </g>
  <rect x="48" y="48" width="1184" height="624" rx="32" fill="white" fill-opacity="0.06" stroke="white" stroke-opacity="0.12"/>
  <rect x="88" y="88" width="214" height="44" rx="22" fill="white" fill-opacity="0.1" stroke="white" stroke-opacity="0.12"/>
  <text x="116" y="116" fill="#BFDBFE" font-family="Inter, Arial, sans-serif" font-size="16" font-weight="700" letter-spacing="2.5">HINDI / URDU GUIDE</text>
  <rect x="1080" y="88" width="112" height="44" rx="22" fill="white" fill-opacity="0.1" stroke="white" stroke-opacity="0.12"/>
  <text x="1118" y="116" fill="white" font-family="Inter, Arial, sans-serif" font-size="18" font-weight="700">1:10</text>
  <g filter="url(#shadow)">
    <circle cx="640" cy="318" r="76" fill="white"/>
  </g>
  <path d="M623 286L676 318L623 350V286Z" fill="#2563EB"/>
  <text x="640" y="456" fill="white" font-family="Inter, Arial, sans-serif" font-size="58" font-weight="800" text-anchor="middle" letter-spacing="-2.5">See How IKIGAI Works</text>
  <text x="640" y="506" fill="#CBD5E1" font-family="Inter, Arial, sans-serif" font-size="24" font-weight="500" text-anchor="middle">Digital setup, listings, tasks, and partner support</text>
  <g opacity="0.95">
    <rect x="285" y="566" width="164" height="44" rx="22" fill="white" fill-opacity="0.1" stroke="white" stroke-opacity="0.12"/>
    <text x="367" y="594" fill="white" font-family="Inter, Arial, sans-serif" font-size="15" font-weight="700" text-anchor="middle">WhatsApp</text>
    <rect x="465" y="566" width="150" height="44" rx="22" fill="white" fill-opacity="0.1" stroke="white" stroke-opacity="0.12"/>
    <text x="540" y="594" fill="white" font-family="Inter, Arial, sans-serif" font-size="15" font-weight="700" text-anchor="middle">Listings</text>
    <rect x="631" y="566" width="170" height="44" rx="22" fill="white" fill-opacity="0.1" stroke="white" stroke-opacity="0.12"/>
    <text x="716" y="594" fill="white" font-family="Inter, Arial, sans-serif" font-size="15" font-weight="700" text-anchor="middle">Restaurant</text>
    <rect x="817" y="566" width="178" height="44" rx="22" fill="white" fill-opacity="0.1" stroke="white" stroke-opacity="0.12"/>
    <text x="906" y="594" fill="white" font-family="Inter, Arial, sans-serif" font-size="15" font-weight="700" text-anchor="middle">Website / Store</text>
  </g>
  <defs>
    <filter id="shadow" x="504" y="182" width="272" height="272" filterUnits="userSpaceOnUse" color-interpolation-filters="sRGB">
      <feDropShadow dx="0" dy="28" stdDeviation="30" flood-color="#020617" flood-opacity="0.45"/>
    </filter>
  </defs>
</svg>
