<svg width="640" height="420" viewBox="0 0 640 420" fill="none" xmlns="http://www.w3.org/2000/svg">
  <rect width="640" height="420" rx="32" fill="#ECFDF5"/>
  <circle cx="500" cy="88" r="82" fill="#BBF7D0"/>
  <circle cx="120" cy="330" r="92" fill="#D1FAE5"/>
  <rect x="150" y="78" width="340" height="264" rx="36" fill="white" stroke="#86EFAC" stroke-width="4"/>
  <rect x="190" y="124" width="190" height="22" rx="11" fill="#16A34A"/>
  <rect x="190" y="170" width="260" height="18" rx="9" fill="#DCFCE7"/>
  <rect x="190" y="208" width="220" height="18" rx="9" fill="#DCFCE7"/>
  <rect x="190" y="246" width="140" height="18" rx="9" fill="#DCFCE7"/>
  <circle cx="420" cy="270" r="46" fill="#22C55E"/>
  <path d="M395 277c18 18 42 14 53-2 3-4 2-10-2-13l-14-9c-4-2-9-1-12 2l-5 7c-8-4-14-10-18-18l7-5c3-3 4-8 2-12l-9-14c-3-4-9-5-13-2-16 11-20 35-2 53l13 13Z" fill="white"/>
  <text x="190" y="308" fill="#166534" font-family="Arial, sans-serif" font-size="26" font-weight="700">WhatsApp Business</text>
</svg>
